<?xml version="1.0" ?><!DOCTYPE svg  PUBLIC '-//W3C//DTD SVG 1.1//EN'  'http://www.w3.org/Graphics/SVG/1.1/DTD/svg11.dtd'><svg height="100%" style="fill-rule:evenodd;clip-rule:evenodd;stroke-linejoin:round;stroke-miterlimit:1.41421;" version="1.1" viewBox="0 0 163 164" width="100%" xml:space="preserve" xmlns="http://www.w3.org/2000/svg" xmlns:xlink="http://www.w3.org/1999/xlink"><g transform="matrix(1,0,0,1,-221,-179)"><g transform="matrix(0.521811,0,0,0.521811,-0.958025,82.1712)"><g id="Social_Media_Skype_S" transform="matrix(1,0,0,1,-173.799,-601.499)"><g id="Fill" transform="matrix(1.9164,0,0,1.9164,46.3415,-191.342)"><path d="M368.312,558.763C374.702,558.763 383.231,558.405 388.056,567.41C391.708,574.228 396.788,580.225 406.566,574.244C413.78,569.831 406.384,556.616 403.472,553.705C400.561,550.793 391.406,543.11 373.168,543.11C354.929,543.11 332.576,548.731 332.576,569.739C332.576,590.747 351.029,596.175 364.119,598.88C377.209,601.586 391.371,603.841 391.513,614.088C391.655,624.336 376.231,626.664 370.097,626.623C363.963,626.582 356.548,625.513 350.111,610.383C347.14,603.4 339.37,603.209 334.835,605.84C330.301,608.472 328.292,615.67 333.912,625.055C339.533,634.44 351.29,642.512 370.097,642.512C388.904,642.512 413.392,635.397 413.392,614.088C413.392,592.78 401.079,586.666 378.751,581.756C356.422,576.846 352.938,573.79 353.479,567.41C354.021,561.031 363.846,558.763 368.312,558.763ZM441.232,609.202C449.386,623.963 446.658,643.57 433.407,656.821C419.289,670.939 397.956,673.112 382.956,662.906C379.326,663.476 375.606,663.771 371.818,663.771C332.402,663.771 300.401,631.77 300.401,592.354C300.401,588.236 300.75,584.199 301.421,580.271C290.403,565.231 292.345,543.242 306.787,528.801C320.804,514.784 341.931,512.542 356.914,522.498C361.721,521.475 366.707,520.937 371.818,520.937C411.234,520.937 443.235,552.938 443.235,592.354C443.235,598.157 442.541,603.799 441.232,609.202Z" style="fill:url(#_Linear1);"/></g><g id="Shine" transform="matrix(1.9164,0,0,1.9164,1.83596,-157.473)"><path d="M426.859,572.84C426.604,572.875 426.349,572.91 426.093,572.945C420.292,568.823 412.179,566.327 401.974,564.083C379.646,559.173 376.162,556.117 376.703,549.737C377.244,543.357 387.069,541.09 391.535,541.09C397.925,541.09 406.454,540.732 411.279,549.737C414.932,556.554 420.011,562.552 429.79,556.571C437.003,552.158 429.607,538.943 426.696,536.031C423.784,533.12 414.63,525.437 396.391,525.437C378.153,525.437 355.8,531.058 355.8,552.066C355.8,562.765 360.586,569.423 367.041,573.738C366.681,573.699 366.322,573.66 365.963,573.619C365.229,573.094 364.519,572.536 363.836,571.942C363.39,571.555 362.956,571.152 362.537,570.735C361.068,569.274 359.78,567.631 358.733,565.842C357.675,564.033 356.87,562.081 356.316,560.061C355.668,557.699 355.362,555.255 355.308,552.808C355.267,550.981 355.381,549.144 355.702,547.343C356.08,545.224 356.744,543.154 357.71,541.229C358.739,539.177 360.108,537.302 361.719,535.67C363.058,534.313 364.56,533.121 366.158,532.084C368.637,530.475 371.343,529.233 374.13,528.263C377.504,527.088 381.005,526.3 384.536,525.775C387.704,525.305 390.903,525.049 394.104,524.967C396.795,524.897 399.491,524.95 402.172,525.206C407.624,525.726 413.037,527.042 417.987,529.417C419.243,530.02 420.467,530.691 421.648,531.431C422.73,532.108 423.777,532.843 424.772,533.643C425.296,534.065 425.806,534.504 426.301,534.96C426.692,535.32 427.08,535.689 427.432,536.089C427.833,536.545 428.2,537.03 428.546,537.528C428.839,537.949 429.119,538.379 429.388,538.815C430.297,540.288 431.088,541.839 431.743,543.442C432.32,544.855 432.794,546.317 433.081,547.818C433.273,548.822 433.384,549.848 433.351,550.871C433.327,551.603 433.23,552.334 433.032,553.039C432.815,553.815 432.474,554.558 432,555.212C431.644,555.704 431.217,556.146 430.739,556.52C430.425,556.765 430.087,556.978 429.745,557.181C429.368,557.404 428.986,557.618 428.597,557.819C426.544,558.88 424.253,559.635 421.917,559.511C421.561,559.492 421.206,559.453 420.855,559.393C420.327,559.303 419.808,559.165 419.305,558.983C418.114,558.551 417.027,557.871 416.065,557.051C415.14,556.262 414.327,555.349 413.594,554.381C413.365,554.079 413.144,553.771 412.93,553.459C412.666,553.075 412.412,552.683 412.166,552.287C411.863,551.798 411.573,551.301 411.291,550.799C411.065,550.39 410.844,549.978 410.616,549.57C410.359,549.122 410.089,548.682 409.796,548.256C409.33,547.579 408.814,546.935 408.247,546.34C407.613,545.676 406.916,545.073 406.163,544.548C405.646,544.187 405.103,543.863 404.542,543.576C404.133,543.367 403.714,543.179 403.288,543.009C401.625,542.348 399.86,541.987 398.085,541.797C396.629,541.641 395.164,541.601 393.701,541.59C393.046,541.588 392.391,541.589 391.735,541.59C391.417,541.59 391.1,541.593 390.782,541.61C389.659,541.67 388.542,541.824 387.441,542.048C386.319,542.276 385.212,542.577 384.135,542.965C383.185,543.307 382.256,543.716 381.38,544.219C380.744,544.583 380.135,544.997 379.579,545.476C378.726,546.212 378.003,547.11 377.582,548.163C377.445,548.507 377.341,548.864 377.275,549.228C377.204,549.623 377.176,550.026 377.161,550.427C377.136,551.066 377.161,551.711 377.278,552.341C377.366,552.813 377.509,553.275 377.71,553.712C378.005,554.352 378.429,554.924 378.922,555.425C379.695,556.212 380.628,556.83 381.59,557.362C382.153,557.675 382.733,557.957 383.32,558.222C384.063,558.556 384.819,558.86 385.582,559.144C386.295,559.408 387.014,559.654 387.737,559.89C388.896,560.267 390.064,560.616 391.237,560.945C393.461,561.568 395.702,562.126 397.95,562.657C398.648,562.82 399.347,562.981 400.046,563.14C401.752,563.525 403.461,563.895 405.163,564.296C407.228,564.783 409.286,565.31 411.325,565.897C413.786,566.606 416.224,567.406 418.598,568.369C421.5,569.546 424.332,570.98 426.859,572.84ZM413.33,561.274C413.17,561.146 413.17,561.146 413.012,561.017L412.82,560.855C412.271,560.38 411.745,559.881 411.247,559.351C410.034,558.059 408.984,556.621 408.041,555.122C407.698,554.577 407.369,554.023 407.053,553.463C406.786,552.989 406.531,552.509 406.266,552.035C406.199,551.919 406.131,551.803 406.061,551.688C405.915,551.45 405.766,551.215 405.605,550.987C405.181,550.384 404.698,549.82 404.15,549.324C403.81,549.017 403.445,548.735 403.06,548.486C401.481,547.463 399.617,547.008 397.768,546.793C397.476,546.759 397.184,546.73 396.892,546.707C396.435,546.67 395.976,546.644 395.517,546.627C395.002,546.607 394.487,546.597 393.972,546.592C393.569,546.588 393.167,546.588 392.765,546.589C392.312,546.589 391.86,546.588 391.407,546.591C391.285,546.594 391.162,546.598 391.04,546.604C389.62,546.688 388.208,546.941 386.843,547.34C385.996,547.587 385.161,547.892 384.371,548.287C383.911,548.517 383.462,548.778 383.054,549.093C382.805,549.284 382.559,549.499 382.374,549.756C382.3,549.859 382.224,549.979 382.198,550.107C382.178,550.2 382.175,550.3 382.169,550.395C382.164,550.469 382.16,550.544 382.157,550.618C382.149,550.832 382.148,551.048 382.171,551.261C382.183,551.378 382.199,551.501 382.247,551.61C382.292,551.712 382.374,551.8 382.448,551.879C382.598,552.039 382.768,552.179 382.942,552.31C383.181,552.489 383.432,552.65 383.688,552.803C384.117,553.057 384.561,553.283 385.011,553.496C385.38,553.67 385.754,553.834 386.131,553.99C386.615,554.19 387.103,554.378 387.595,554.556C388.262,554.798 388.936,555.024 389.612,555.241C390.376,555.486 391.145,555.718 391.917,555.941C392.949,556.238 393.987,556.517 395.027,556.787C396.378,557.138 397.735,557.47 399.094,557.789C400.821,558.195 402.553,558.576 404.284,558.963C404.7,559.057 405.115,559.152 405.53,559.248C407.603,559.731 409.668,560.248 411.721,560.813C412.258,560.963 412.795,561.115 413.33,561.274ZM356.606,572.378C345.057,570.603 334.221,568.01 324.372,564.733L324.645,562.598C313.626,547.558 315.569,525.569 330.01,511.128C344.027,497.111 365.155,494.869 380.137,504.825C384.945,503.802 389.931,503.264 395.042,503.264C430.667,503.264 460.235,529.406 465.593,563.579C455.977,567.014 445.347,569.78 433.96,571.738C433.025,570.78 432.024,569.886 430.972,569.059C429.777,568.118 428.515,567.263 427.209,566.484C426.608,566.125 425.997,565.785 425.379,565.455C425.045,565.279 425.045,565.279 424.709,565.107C424.578,565.041 424.447,564.974 424.316,564.909L424.441,564.894C425.091,564.807 425.735,564.688 426.372,564.53C427.559,564.238 428.716,563.825 429.832,563.327C430.636,562.968 431.419,562.564 432.182,562.126C432.708,561.825 433.226,561.511 433.718,561.158C434.235,560.788 434.722,560.378 435.173,559.932C435.818,559.294 436.391,558.584 436.875,557.817C437.268,557.196 437.602,556.537 437.876,555.855C438.08,555.348 438.251,554.827 438.389,554.297C438.492,553.905 438.576,553.509 438.644,553.11C439.12,550.306 438.753,547.415 437.989,544.697C437.849,544.199 437.695,543.706 437.528,543.216C437.286,542.503 437.018,541.798 436.728,541.103C435.979,539.312 435.088,537.577 434.068,535.925C433.319,534.712 432.505,533.529 431.562,532.457C431.032,531.853 430.448,531.296 429.854,530.755C429.08,530.052 428.275,529.383 427.442,528.75C426.313,527.893 425.133,527.105 423.919,526.372C421.629,524.989 419.199,523.836 416.697,522.892C411.884,521.076 406.797,520.046 401.675,519.642C398.993,519.429 396.299,519.398 393.611,519.478C389.265,519.607 384.922,520.035 380.651,520.859C376.672,521.626 372.742,522.74 369.019,524.353C366.097,525.62 363.301,527.202 360.786,529.162C359.386,530.252 358.076,531.457 356.89,532.777C355.149,534.716 353.675,536.897 352.555,539.252C351.412,541.651 350.634,544.218 350.209,546.839C349.833,549.161 349.735,551.522 349.84,553.87C349.95,556.341 350.297,558.804 350.926,561.197C351.544,563.547 352.439,565.824 353.609,567.954C354.468,569.518 355.475,570.999 356.606,572.378Z" style="fill:url(#_Linear2);"/></g><g id="Stroke" transform="matrix(1.9164,0,0,1.9164,1.83596,-157.473)"><path d="M427.108,651.574C428.443,651.573 429.776,651.511 431.105,651.379C433.936,651.099 436.737,650.517 439.448,649.656C443.147,648.481 446.675,646.785 449.911,644.644C454.657,641.503 458.777,637.411 461.953,632.689C463.724,630.054 465.2,627.221 466.336,624.256C467.583,621.003 468.421,617.593 468.809,614.13C469.225,610.411 469.121,606.633 468.47,602.947C468.017,600.377 467.297,597.854 466.317,595.435C465.824,594.219 465.263,593.033 464.645,591.876L464.551,591.702L464.456,591.529C464.537,591.191 464.617,590.852 464.694,590.513C465.214,588.202 465.625,585.869 465.916,583.519C466.688,577.276 466.638,570.929 465.765,564.699C464.747,557.435 462.597,550.338 459.411,543.731C456.111,536.884 451.709,530.578 446.432,525.109C441.06,519.542 434.79,514.851 427.927,511.281C421.838,508.114 415.294,505.836 408.554,504.543C401.7,503.228 394.651,502.927 387.709,503.637C386.009,503.811 384.315,504.045 382.632,504.341C381.797,504.487 380.966,504.651 380.137,504.825C379.961,504.709 379.785,504.594 379.608,504.48C378.43,503.732 377.215,503.047 375.96,502.437C373.412,501.198 370.719,500.261 367.955,499.638C364.44,498.846 360.815,498.561 357.219,498.765C353.983,498.949 350.771,499.527 347.671,500.471C343.921,501.612 340.338,503.288 337.051,505.421C332.156,508.598 327.911,512.782 324.661,517.628C322.777,520.435 321.23,523.467 320.071,526.643C318.723,530.336 317.9,534.221 317.659,538.145C317.409,542.205 317.782,546.303 318.804,550.241C319.556,553.14 320.657,555.947 322.091,558.576C322.852,559.972 323.709,561.312 324.645,562.598C324.603,562.844 324.563,563.09 324.523,563.336C324.406,564.077 324.297,564.819 324.202,565.564C324.011,567.066 323.867,568.573 323.771,570.084C323.366,576.432 323.8,582.834 325.077,589.067C326.394,595.499 328.611,601.742 331.641,607.567C334.617,613.288 338.373,618.6 342.767,623.321C347.153,628.032 352.173,632.151 357.654,635.528C364.21,639.568 371.418,642.534 378.921,644.268C385.35,645.754 391.983,646.334 398.572,646.012C400.084,645.938 401.592,645.817 403.096,645.648C403.898,645.558 404.699,645.452 405.498,645.336L405.839,645.285L406.179,645.233C406.355,645.352 406.532,645.47 406.709,645.587C407.477,646.086 408.26,646.56 409.063,647.001C410.653,647.877 412.31,648.631 414.014,649.258C416.623,650.219 419.341,650.882 422.098,651.244C423.481,651.426 424.873,651.528 426.268,651.564C426.548,651.57 426.828,651.573 427.108,651.574ZM427.099,656.574C426.311,656.571 425.524,656.551 424.737,656.508C422.773,656.399 420.816,656.159 418.884,655.787C415.707,655.173 412.599,654.198 409.646,652.874C408.061,652.163 406.525,651.351 405.042,650.448C404.703,650.492 404.364,650.534 404.024,650.574C403.161,650.674 402.297,650.762 401.432,650.834C399.684,650.979 397.932,651.064 396.178,651.09C389.527,651.187 382.866,650.426 376.414,648.807C372.021,647.704 367.728,646.208 363.601,644.341C359.673,642.564 355.896,640.451 352.324,638.037C347.256,634.612 342.601,630.579 338.487,626.053C334.259,621.402 330.605,616.232 327.637,610.692C324.397,604.644 321.981,598.159 320.478,591.465C319.002,584.892 318.409,578.126 318.694,571.396C318.802,568.853 319.04,566.319 319.396,563.799C319.287,563.634 319.181,563.467 319.074,563.3C318.158,561.847 317.326,560.343 316.595,558.789C315.116,555.645 314.039,552.316 313.378,548.906C312.487,544.311 312.353,539.577 312.941,534.935C313.499,530.532 314.704,526.216 316.488,522.154C317.781,519.212 319.377,516.404 321.238,513.785C324.424,509.301 328.383,505.363 332.884,502.203C336.096,499.947 339.587,498.09 343.257,496.698C347.266,495.176 351.486,494.21 355.76,493.855C359.737,493.525 363.758,493.725 367.679,494.474C370.757,495.063 373.77,495.99 376.642,497.246C378.166,497.912 379.644,498.674 381.078,499.515L381.11,499.535C381.492,499.464 381.874,499.397 382.256,499.332C382.665,499.264 383.073,499.198 383.483,499.135C385.882,498.775 388.295,498.521 390.717,498.385C397.63,497.998 404.595,498.54 411.361,500.015C418.973,501.674 426.318,504.513 433.071,508.398C439.441,512.062 445.276,516.649 450.347,521.968C455.213,527.071 459.371,532.843 462.663,539.079C466.388,546.135 468.992,553.774 470.347,561.637C471.561,568.681 471.781,575.897 471.009,583.003C470.725,585.622 470.301,588.223 469.751,590.8L469.74,590.852C469.848,591.07 469.952,591.29 470.057,591.51C470.151,591.713 470.245,591.916 470.337,592.12C470.943,593.477 471.482,594.861 471.944,596.274C472.862,599.084 473.481,601.99 473.8,604.929C474.257,609.133 474.099,613.4 473.362,617.564C472.582,621.966 471.155,626.249 469.155,630.246C465.482,637.585 459.881,643.935 453.087,648.535C449.554,650.927 445.698,652.841 441.652,654.196C438.545,655.237 435.328,655.948 432.071,656.306C430.576,656.47 429.076,656.555 427.573,656.573C427.415,656.574 427.257,656.574 427.099,656.574Z" style="fill:rgb(245,221,154);fill-rule:nonzero;"/></g><g id="SmallStroke" transform="matrix(1.9164,0,0,1.9164,1.83596,-157.473)"><path d="M393.32,625.339C391.881,625.334 390.443,625.292 389.007,625.193C385.744,624.968 382.496,624.474 379.329,623.65C376.322,622.868 373.39,621.786 370.622,620.37C367.04,618.539 363.741,616.145 360.966,613.226C359.59,611.779 358.344,610.207 357.261,608.529C356.795,607.809 356.36,607.069 355.954,606.313C355.615,605.68 355.298,605.035 355.008,604.378C354.768,603.832 354.545,603.278 354.344,602.717C354.179,602.253 354.028,601.784 353.894,601.31C353.785,600.924 353.687,600.534 353.602,600.141C353.065,597.673 353.02,595.036 353.866,592.629C354.402,591.105 355.3,589.707 356.527,588.647C357.529,587.783 358.734,587.177 359.983,586.761C360.462,586.602 360.951,586.471 361.445,586.37C363.87,585.871 366.473,586.06 368.73,587.115C369.409,587.433 370.052,587.827 370.642,588.291C371.263,588.781 371.823,589.347 372.31,589.97C372.658,590.415 372.969,590.888 373.243,591.382C373.387,591.643 373.52,591.909 373.646,592.179C373.8,592.52 373.945,592.865 374.095,593.208C374.479,594.074 374.879,594.933 375.307,595.779C375.647,596.454 376.004,597.121 376.38,597.776C376.677,598.295 376.986,598.807 377.308,599.31C377.558,599.702 377.817,600.089 378.085,600.469C379.682,602.738 381.622,604.823 384.019,606.257C384.469,606.526 384.934,606.771 385.411,606.991C386.151,607.331 386.921,607.606 387.707,607.818C388.594,608.056 389.5,608.213 390.412,608.308C391.284,608.4 392.161,608.436 393.038,608.447C394.675,608.468 396.312,608.35 397.936,608.139C399.769,607.902 401.59,607.545 403.368,607.039C404.689,606.663 405.989,606.204 407.236,605.628C408.23,605.168 409.192,604.633 410.084,603.994C411.371,603.073 412.516,601.92 413.268,600.516C413.664,599.777 413.943,598.979 414.095,598.155C414.221,597.472 414.259,596.775 414.226,596.081C414.193,595.371 414.085,594.663 413.889,593.978C413.696,593.304 413.418,592.655 413.065,592.049C412.02,590.254 410.363,588.907 408.592,587.87C407.589,587.283 406.535,586.785 405.46,586.344C404.28,585.859 403.072,585.443 401.853,585.068C399.669,584.396 397.447,583.855 395.217,583.359C392.566,582.769 389.901,582.245 387.241,581.697C386.72,581.588 386.199,581.478 385.679,581.366C384.372,581.079 383.069,580.775 381.774,580.439C380.649,580.147 379.529,579.833 378.419,579.489C377.512,579.208 376.611,578.908 375.719,578.585C375.043,578.34 374.372,578.082 373.706,577.81C369.919,576.258 366.286,574.213 363.262,571.429C362.77,570.976 362.295,570.504 361.84,570.014C360.657,568.741 359.61,567.342 358.733,565.842C357.905,564.424 357.23,562.92 356.71,561.362C355.792,558.607 355.368,555.707 355.308,552.808C355.271,551.05 355.372,549.29 355.665,547.555C356.048,545.29 356.756,543.081 357.807,541.036C358.858,538.994 360.244,537.136 361.871,535.517C363.413,533.983 365.161,532.665 367.022,531.544C369.889,529.815 373.017,528.544 376.219,527.589C378.277,526.976 380.372,526.492 382.484,526.112C384.909,525.675 387.358,525.375 389.814,525.186C391.571,525.05 393.333,524.972 395.095,524.947C397.042,524.918 398.989,524.958 400.931,525.101C404.243,525.345 407.538,525.87 410.744,526.742C414.359,527.725 417.866,529.15 421.08,531.082C422.601,531.997 424.062,533.022 425.413,534.174C425.814,534.516 426.207,534.866 426.589,535.23C426.88,535.506 427.167,535.787 427.432,536.089C428.014,536.752 428.527,537.477 429.008,538.215C429.697,539.273 430.317,540.376 430.873,541.509C431.426,542.637 431.917,543.796 432.32,544.986C432.68,546.044 432.972,547.127 433.155,548.23C433.412,549.771 433.465,551.386 433.067,552.909C432.886,553.604 432.608,554.274 432.224,554.881C431.845,555.483 431.364,556.016 430.811,556.463C430.428,556.772 430.011,557.027 429.586,557.274C429.214,557.491 428.837,557.698 428.453,557.892C426.636,558.814 424.643,559.488 422.59,559.523C422.291,559.528 421.992,559.52 421.693,559.497C421.319,559.468 420.946,559.416 420.578,559.341C420.001,559.224 419.437,559.049 418.895,558.823C418.639,558.716 418.389,558.599 418.144,558.471C416.433,557.577 415.023,556.203 413.838,554.697C413.618,554.418 413.406,554.134 413.2,553.845C412.957,553.504 412.722,553.157 412.494,552.805C412.198,552.348 411.914,551.882 411.64,551.411C411.325,550.87 411.026,550.319 410.727,549.769C410.616,549.569 410.616,549.57 410.502,549.371C410.278,548.992 410.046,548.619 409.796,548.256C409.264,547.482 408.666,546.752 408,546.087C407.353,545.442 406.642,544.86 405.88,544.355C405.349,544.005 404.794,543.692 404.221,543.417C403.813,543.222 403.395,543.045 402.971,542.887C400.319,541.899 397.464,541.652 394.656,541.601C394.231,541.593 393.807,541.589 393.383,541.589C392.969,541.588 392.555,541.589 392.141,541.589C391.871,541.59 391.6,541.589 391.33,541.592C391.147,541.595 390.965,541.602 390.782,541.61C389.584,541.675 388.393,541.845 387.22,542.094C386.025,542.348 384.846,542.685 383.705,543.125C382.852,543.454 382.019,543.84 381.231,544.305C380.611,544.671 380.017,545.086 379.478,545.565C379.139,545.866 378.821,546.192 378.537,546.545C377.934,547.294 377.492,548.165 377.298,549.109C377.233,549.425 377.201,549.745 377.18,550.067C377.159,550.386 377.148,550.707 377.154,551.027C377.162,551.53 377.209,552.034 377.316,552.526C377.417,552.992 377.573,553.446 377.788,553.873C378.192,554.677 378.793,555.36 379.476,555.939C379.959,556.347 380.481,556.707 381.021,557.034C381.621,557.396 382.243,557.719 382.877,558.018C384.448,558.757 386.087,559.352 387.737,559.89C389.591,560.495 391.469,561.024 393.355,561.518C395.575,562.101 397.808,562.633 400.046,563.14C401.243,563.412 402.442,563.672 403.638,563.943C404.147,564.059 404.655,564.177 405.163,564.296C407.704,564.901 410.235,565.552 412.734,566.314C414.504,566.854 416.26,567.448 417.983,568.124C421.264,569.411 424.461,571.003 427.271,573.148C428.885,574.381 430.359,575.797 431.617,577.393C432.546,578.571 433.353,579.843 434.031,581.182C434.688,582.481 435.222,583.841 435.646,585.233C436.485,587.986 436.896,590.856 437.047,593.725C437.081,594.371 437.102,595.018 437.11,595.665C437.124,596.662 437.107,597.658 437.024,598.652C436.84,600.878 436.362,603.08 435.562,605.168C434.863,606.994 433.922,608.723 432.779,610.309C431.644,611.884 430.316,613.314 428.858,614.594C427.307,615.953 425.612,617.144 423.833,618.185C421.723,619.42 419.495,620.448 417.208,621.309C414.258,622.421 411.207,623.259 408.119,623.884C404.733,624.569 401.295,625 397.847,625.204C396.786,625.267 395.724,625.305 394.661,625.327C394.214,625.333 393.767,625.337 393.32,625.339ZM393.32,624.839C394.214,624.836 395.107,624.823 395.999,624.791C397.839,624.726 399.677,624.595 401.508,624.397C403.535,624.178 405.554,623.877 407.556,623.486C409.099,623.185 410.633,622.83 412.15,622.416C413.353,622.087 414.546,621.721 415.724,621.314C416.597,621.011 417.462,620.686 418.317,620.336C419.021,620.048 419.717,619.743 420.405,619.42C424.401,617.542 428.166,615.024 431.069,611.667C431.481,611.189 431.876,610.696 432.25,610.187C432.79,609.451 433.287,608.683 433.734,607.888C434.364,606.767 434.896,605.591 435.319,604.377C435.969,602.517 436.363,600.573 436.526,598.61C436.647,597.152 436.632,595.685 436.57,594.224C436.476,592.028 436.234,589.834 435.766,587.685C435.282,585.457 434.549,583.277 433.503,581.248C432.485,579.274 431.171,577.462 429.616,575.876C429.248,575.501 428.867,575.139 428.475,574.789C425.59,572.216 422.138,570.36 418.579,568.902C416.476,568.04 414.321,567.31 412.145,566.659C409.8,565.957 407.429,565.346 405.048,564.783C403.347,564.381 401.64,564.013 399.935,563.628C399.291,563.481 398.648,563.333 398.005,563.183C395.516,562.596 393.034,561.98 390.576,561.277C388.705,560.742 386.845,560.161 385.026,559.466C383.684,558.954 382.356,558.38 381.108,557.665C380.152,557.117 379.231,556.478 378.469,555.677C377.87,555.048 377.385,554.316 377.081,553.501C376.72,552.534 376.625,551.495 376.659,550.47C376.673,550.054 376.699,549.635 376.768,549.223C376.847,548.753 376.981,548.293 377.167,547.854C377.602,546.823 378.313,545.93 379.146,545.191C379.748,544.657 380.414,544.198 381.111,543.797C381.975,543.3 382.888,542.891 383.823,542.547C385.127,542.067 386.478,541.711 387.845,541.461C389.027,541.245 390.227,541.105 391.429,541.091C392.187,541.088 392.944,541.087 393.701,541.09C395.015,541.1 396.33,541.132 397.639,541.25C399.569,541.424 401.495,541.782 403.309,542.48C403.801,542.67 404.285,542.884 404.755,543.123C405.346,543.424 405.916,543.765 406.459,544.145C407.244,544.694 407.971,545.324 408.631,546.018C409.414,546.843 410.101,547.756 410.697,548.724C411.028,549.262 411.322,549.82 411.626,550.374C411.773,550.637 411.921,550.899 412.072,551.159C413.092,552.903 414.238,554.602 415.685,556.024C416.41,556.737 417.213,557.376 418.099,557.877C418.694,558.213 419.324,558.485 419.979,558.678C420.391,558.799 420.813,558.888 421.238,558.946C421.541,558.987 421.847,559.011 422.152,559.02C424.035,559.076 425.886,558.54 427.582,557.759C427.873,557.624 428.161,557.482 428.445,557.334C428.823,557.136 429.195,556.927 429.561,556.709C429.859,556.531 430.15,556.346 430.424,556.132C430.85,555.798 431.233,555.409 431.555,554.974C431.882,554.532 432.145,554.044 432.343,553.532C432.861,552.188 432.933,550.71 432.792,549.29C432.767,549.029 432.733,548.768 432.693,548.509C432.643,548.178 432.581,547.85 432.511,547.523C432.425,547.123 432.326,546.726 432.215,546.332C431.917,545.268 431.538,544.227 431.104,543.21C430.636,542.115 430.103,541.046 429.515,540.01C429.114,539.305 428.686,538.615 428.226,537.947C427.862,537.419 427.479,536.901 427.056,536.419C426.751,536.07 426.415,535.749 426.076,535.433C425.645,535.03 425.201,534.643 424.746,534.268C423.107,532.921 421.327,531.747 419.464,530.734C416.388,529.062 413.082,527.831 409.688,526.983C406.549,526.199 403.333,525.74 400.105,525.547C398.295,525.438 396.482,525.418 394.67,525.454C392.767,525.491 390.865,525.59 388.969,525.757C386.605,525.966 384.249,526.281 381.918,526.725C379.833,527.123 377.766,527.625 375.739,528.258C372.603,529.239 369.545,530.537 366.761,532.292C365.017,533.391 363.384,534.672 361.947,536.152C360.429,537.715 359.139,539.497 358.161,541.445C357.148,543.46 356.477,545.634 356.122,547.859C355.862,549.492 355.773,551.146 355.807,552.798C355.869,555.779 356.323,558.764 357.314,561.582C357.865,563.148 358.58,564.655 359.452,566.067C360.343,567.509 361.396,568.848 362.576,570.064C362.991,570.491 363.421,570.903 363.864,571.301C366.97,574.083 370.694,576.095 374.558,577.613C375.219,577.872 375.886,578.118 376.557,578.352C377.443,578.66 378.337,578.947 379.237,579.215C380.445,579.575 381.662,579.903 382.886,580.205C384.161,580.52 385.442,580.805 386.725,581.079C388.573,581.464 390.424,581.835 392.272,582.217C394.584,582.7 396.894,583.198 399.179,583.794C400.939,584.252 402.686,584.765 404.393,585.393C404.98,585.609 405.563,585.839 406.137,586.086C406.61,586.289 407.078,586.505 407.539,586.734C407.836,586.883 408.13,587.037 408.42,587.197C409.975,588.059 411.45,589.124 412.589,590.5C413.218,591.26 413.734,592.111 414.095,593.029C414.475,593.995 414.678,595.023 414.726,596.058C414.756,596.716 414.727,597.376 414.624,598.026C414.506,598.771 414.293,599.5 413.985,600.188C413.309,601.706 412.196,602.984 410.899,604.007C410.022,604.699 409.063,605.282 408.066,605.782C406.819,606.409 405.51,606.909 404.178,607.32C402.299,607.9 400.366,608.306 398.419,608.579C396.636,608.828 394.834,608.97 393.032,608.947C392.14,608.936 391.247,608.899 390.36,608.806C389.421,608.707 388.489,608.546 387.578,608.301C386.707,608.066 385.857,607.757 385.043,607.371C384.605,607.163 384.178,606.934 383.762,606.686C381.144,605.119 379.057,602.806 377.359,600.299C377.088,599.898 376.826,599.491 376.572,599.079C376.246,598.551 375.934,598.014 375.634,597.471C375.199,596.683 374.789,595.88 374.399,595.068C374.136,594.52 373.882,593.966 373.637,593.409C373.511,593.123 373.389,592.835 373.264,592.548C373.192,592.388 373.193,592.389 373.118,592.23C372.994,591.976 372.865,591.725 372.723,591.479C372.457,591.016 372.155,590.572 371.819,590.156C371.38,589.612 370.881,589.117 370.332,588.684C369.737,588.215 369.083,587.821 368.391,587.51C366.26,586.551 363.821,586.392 361.546,586.859C361.071,586.957 360.601,587.082 360.141,587.236C358.954,587.631 357.806,588.204 356.854,589.026C355.656,590.06 354.794,591.434 354.292,592.929C353.545,595.152 353.581,597.572 354.051,599.849C354.129,600.229 354.22,600.607 354.322,600.982C354.447,601.442 354.589,601.898 354.745,602.349C354.935,602.897 355.146,603.437 355.376,603.97C355.653,604.612 355.956,605.243 356.281,605.862C356.671,606.605 357.092,607.331 357.541,608.039C358.591,609.695 359.8,611.248 361.138,612.68C363.767,615.492 366.888,617.822 370.283,619.63C372.97,621.06 375.824,622.166 378.756,622.978C381.714,623.798 384.751,624.32 387.807,624.596C389.205,624.722 390.606,624.792 392.01,624.825C392.447,624.833 392.883,624.837 393.32,624.839ZM427.109,651.074C428.427,651.073 429.743,651.012 431.055,650.882C433.852,650.605 436.619,650.031 439.297,649.179C442.881,648.041 446.304,646.407 449.45,644.349C454.161,641.267 458.257,637.239 461.421,632.582C463.223,629.93 464.722,627.072 465.87,624.078C467.101,620.864 467.929,617.495 468.312,614.074C468.723,610.403 468.62,606.673 467.978,603.034C467.53,600.499 466.821,598.009 465.854,595.623C465.368,594.423 464.815,593.254 464.205,592.113L464.112,591.941L464.018,591.77L463.972,591.656C463.956,591.534 463.956,591.534 463.97,591.412C464.051,591.076 464.129,590.74 464.206,590.403C464.722,588.108 465.131,585.791 465.42,583.457C466.186,577.258 466.137,570.955 465.27,564.769C464.259,557.555 462.124,550.509 458.961,543.948C455.745,537.277 451.476,531.122 446.367,525.763C441.166,520.308 435.099,515.684 428.455,512.125C422.196,508.772 415.434,506.372 408.459,505.034C401.653,503.729 394.654,503.43 387.76,504.134C386.071,504.307 384.389,504.54 382.718,504.833C381.889,504.979 381.063,505.142 380.239,505.314L380.109,505.324C379.98,505.299 379.979,505.299 379.862,505.242C379.688,505.128 379.514,505.014 379.339,504.901C378.119,504.127 376.859,503.421 375.556,502.797C373.097,501.619 370.505,500.726 367.845,500.126C364.376,499.344 360.797,499.063 357.247,499.264C354.051,499.446 350.879,500.017 347.816,500.949C344.112,502.077 340.571,503.733 337.323,505.841C332.485,508.98 328.288,513.116 325.076,517.906C323.215,520.681 321.686,523.677 320.54,526.815C319.209,530.462 318.396,534.299 318.158,538.176C317.911,542.183 318.28,546.229 319.288,550.116C320.029,552.974 321.116,555.743 322.53,558.336C323.281,559.713 324.126,561.036 325.049,562.304L325.112,562.42C325.142,562.549 325.142,562.549 325.138,562.681C325.097,562.925 325.056,563.17 325.017,563.415C324.901,564.151 324.793,564.888 324.698,565.627C324.508,567.118 324.365,568.616 324.27,570.116C323.859,576.567 324.319,583.073 325.656,589.398C327.004,595.773 329.242,601.954 332.284,607.716C335.339,613.504 339.2,618.863 343.717,623.599C347.932,628.021 352.715,631.898 357.916,635.102C364.426,639.114 371.583,642.059 379.034,643.781C385.418,645.256 392.004,645.832 398.548,645.513C400.85,645.401 403.144,645.172 405.425,644.842L405.764,644.791L406.103,644.739L406.227,644.735C406.349,644.762 406.349,644.762 406.459,644.819C406.633,644.936 406.808,645.053 406.983,645.168C407.682,645.623 408.394,646.056 409.122,646.463C410.566,647.269 412.067,647.973 413.609,648.571C416.295,649.613 419.105,650.331 421.958,650.721C423.392,650.917 424.834,651.027 426.28,651.064C426.556,651.07 426.832,651.073 427.109,651.074ZM427.108,651.574C425.502,651.568 423.898,651.471 422.305,651.271C419.132,650.872 416.008,650.074 413.039,648.884C411.417,648.233 409.841,647.465 408.329,646.586C407.597,646.161 406.881,645.707 406.179,645.233C405.838,645.285 405.497,645.336 405.156,645.386C404.356,645.498 403.554,645.6 402.751,645.686C401.245,645.848 399.734,645.962 398.221,646.028C391.895,646.306 385.533,645.754 379.353,644.367C371.835,642.679 364.605,639.755 358.021,635.753C352.52,632.409 347.475,628.319 343.06,623.633C338.638,618.94 334.852,613.652 331.842,607.949C328.778,602.147 326.524,595.922 325.167,589.502C323.795,583.009 323.339,576.325 323.796,569.704C323.908,568.071 324.077,566.441 324.302,564.819C324.404,564.077 324.521,563.337 324.645,562.598C324.516,562.421 324.389,562.244 324.263,562.066C323.352,560.766 322.522,559.413 321.787,558.006C320.402,555.354 319.35,552.53 318.649,549.621C317.677,545.593 317.378,541.411 317.721,537.284C318.005,533.874 318.726,530.502 319.848,527.269C320.979,524.01 322.517,520.895 324.407,518.01C327.607,513.125 331.813,508.895 336.679,505.666C339.77,503.614 343.13,501.968 346.651,500.796C350.263,499.593 354.041,498.89 357.845,498.734C361.442,498.587 365.06,498.93 368.56,499.78C371.246,500.432 373.861,501.383 376.333,502.621C377.645,503.277 378.913,504.017 380.137,504.825C380.513,504.746 380.89,504.669 381.267,504.594C383.476,504.165 385.703,503.835 387.942,503.613C394.513,502.964 401.176,503.218 407.677,504.381C415.01,505.692 422.125,508.167 428.691,511.684C434.752,514.931 440.337,519.057 445.227,523.89C449.196,527.811 452.706,532.195 455.661,536.927C458.494,541.463 460.815,546.317 462.562,551.372C463.959,555.414 464.988,559.583 465.635,563.811C466.47,569.272 466.67,574.831 466.237,580.339C466.044,582.804 465.722,585.26 465.274,587.692C465.037,588.978 464.762,590.257 464.456,591.529C464.583,591.76 464.707,591.991 464.83,592.224C465.436,593.387 465.983,594.579 466.462,595.799C467.417,598.228 468.109,600.759 468.536,603.333C469.139,606.962 469.213,610.674 468.786,614.327C468.381,617.79 467.527,621.198 466.263,624.447C465.137,627.342 463.686,630.11 461.953,632.689C458.903,637.225 454.98,641.179 450.47,644.268C447.499,646.302 444.271,647.957 440.881,649.172C438.127,650.159 435.268,650.854 432.366,651.234C430.97,651.417 429.566,651.523 428.159,651.562C427.808,651.57 427.458,651.574 427.108,651.574Z" style="fill:rgb(209,160,21);fill-rule:nonzero;"/></g><g id="InnerStroke" transform="matrix(1.9164,0,0,1.9164,1.83596,-157.473)"><path d="M393.318,630.839C392.442,630.834 391.566,630.82 390.691,630.788C389.556,630.746 388.422,630.675 387.291,630.574C383.057,630.193 378.854,629.383 374.813,628.051C371.079,626.82 367.488,625.143 364.193,622.995C361.694,621.366 359.366,619.472 357.285,617.333C355.024,615.009 353.06,612.4 351.47,609.573C351.085,608.888 350.721,608.192 350.383,607.483C348.783,604.134 347.725,600.47 347.712,596.738C347.71,596.239 347.727,595.739 347.764,595.241C347.811,594.616 347.889,593.993 348,593.376C348.137,592.622 348.323,591.877 348.561,591.148C348.866,590.214 349.257,589.309 349.732,588.449C350.317,587.391 351.029,586.403 351.855,585.52C352.882,584.422 354.084,583.502 355.4,582.777C356.205,582.334 357.049,581.963 357.915,581.656C358.862,581.321 359.836,581.065 360.824,580.889C362.364,580.615 363.94,580.537 365.499,580.669C366.127,580.722 366.749,580.812 367.368,580.931L367.4,580.938C367.172,580.818 366.945,580.695 366.719,580.572C366.525,580.465 366.333,580.357 366.14,580.248C365.43,579.842 364.73,579.418 364.046,578.97C362.647,578.055 361.308,577.047 360.054,575.941C358.971,574.987 357.952,573.96 357.012,572.863C355.715,571.348 354.569,569.703 353.609,567.954C352.439,565.824 351.544,563.547 350.926,561.197C350.297,558.804 349.95,556.341 349.84,553.87C349.735,551.522 349.833,549.161 350.209,546.839C350.634,544.218 351.412,541.651 352.555,539.252C353.675,536.897 355.149,534.716 356.89,532.777C358.076,531.457 359.386,530.252 360.786,529.162C363.301,527.202 366.097,525.62 369.019,524.353C372.742,522.74 376.672,521.626 380.651,520.859C384.922,520.035 389.265,519.607 393.611,519.478C396.299,519.398 398.993,519.429 401.675,519.642C406.797,520.046 411.884,521.076 416.697,522.892C419.199,523.836 421.629,524.989 423.919,526.372C425.133,527.105 426.313,527.893 427.442,528.75C428.275,529.383 429.08,530.052 429.854,530.755C430.448,531.296 431.032,531.853 431.562,532.457C432.505,533.529 433.319,534.712 434.068,535.925C435.088,537.577 435.979,539.312 436.728,541.103C437.018,541.798 437.286,542.503 437.528,543.216C437.695,543.706 437.849,544.199 437.989,544.697C438.753,547.415 439.12,550.306 438.644,553.11C438.576,553.509 438.492,553.905 438.389,554.297C438.251,554.827 438.08,555.348 437.876,555.855C437.602,556.537 437.268,557.196 436.875,557.817C436.391,558.584 435.818,559.294 435.173,559.932C434.722,560.378 434.235,560.788 433.718,561.158C433.226,561.511 432.708,561.825 432.182,562.126C431.419,562.564 430.636,562.968 429.832,563.327C428.716,563.825 427.559,564.238 426.372,564.53C425.735,564.688 425.091,564.807 424.441,564.894L424.316,564.909C424.447,564.974 424.578,565.041 424.709,565.107C425.045,565.279 425.045,565.279 425.379,565.455C425.997,565.785 426.608,566.125 427.209,566.484C428.515,567.263 429.777,568.118 430.972,569.059C432.374,570.162 433.685,571.383 434.871,572.716C435.782,573.741 436.618,574.833 437.369,575.98C438.913,578.343 440.085,580.932 440.907,583.63C441.67,586.132 442.136,588.719 442.384,591.321C442.502,592.562 442.571,593.808 442.6,595.054C442.626,596.176 442.621,597.299 442.554,598.419C442.49,599.499 442.368,600.575 442.188,601.642C441.772,604.118 441.04,606.539 439.989,608.82C439.259,610.403 438.381,611.918 437.373,613.34C436.43,614.67 435.375,615.919 434.231,617.081C430.755,620.61 426.496,623.292 421.984,625.295C421.283,625.606 420.574,625.902 419.859,626.182C416.196,627.62 412.386,628.666 408.524,629.41C403.869,630.307 399.13,630.767 394.391,630.831C394.033,630.834 393.676,630.837 393.318,630.839ZM393.32,625.339C393.767,625.337 394.214,625.335 394.661,625.327C396.911,625.285 399.159,625.149 401.398,624.912C403.545,624.685 405.683,624.366 407.801,623.947C409.357,623.64 410.902,623.28 412.43,622.858C413.665,622.518 414.889,622.137 416.097,621.713C416.973,621.406 417.842,621.075 418.7,620.72C419.405,620.427 420.104,620.117 420.794,619.789C424.831,617.87 428.624,615.297 431.543,611.882C431.937,611.421 432.314,610.946 432.672,610.457C433.249,609.669 433.777,608.844 434.249,607.989C434.92,606.775 435.479,605.499 435.914,604.181C436.562,602.214 436.941,600.159 437.064,598.092C437.112,597.284 437.122,596.475 437.11,595.665C437.102,595.099 437.086,594.533 437.059,593.968C436.953,591.733 436.692,589.501 436.197,587.318C435.727,585.242 435.042,583.21 434.092,581.304C433.444,580.005 432.674,578.766 431.79,577.615C431.153,576.785 430.457,576.002 429.713,575.267C429.307,574.866 428.887,574.479 428.454,574.107C425.553,571.612 422.127,569.801 418.598,568.369C416.224,567.406 413.786,566.606 411.325,565.897C409.286,565.31 407.228,564.783 405.163,564.296C403.461,563.895 401.752,563.525 400.046,563.14C399.347,562.981 398.648,562.82 397.95,562.657C395.702,562.126 393.461,561.568 391.237,560.945C390.064,560.616 388.896,560.267 387.737,559.89C387.014,559.654 386.295,559.408 385.582,559.144C384.819,558.86 384.063,558.556 383.32,558.222C382.733,557.957 382.153,557.675 381.59,557.362C380.628,556.83 379.695,556.212 378.922,555.425C378.429,554.924 378.005,554.352 377.71,553.712C377.509,553.275 377.366,552.813 377.278,552.341C377.161,551.711 377.136,551.066 377.161,550.427C377.176,550.026 377.204,549.623 377.275,549.228C377.341,548.864 377.445,548.507 377.582,548.163C378.003,547.11 378.726,546.212 379.579,545.476C380.135,544.997 380.744,544.583 381.38,544.219C382.256,543.716 383.185,543.307 384.135,542.965C385.212,542.577 386.319,542.276 387.441,542.048C388.542,541.824 389.659,541.67 390.782,541.61C391.1,541.593 391.417,541.59 391.735,541.59C392.391,541.589 393.046,541.588 393.701,541.59C395.164,541.601 396.629,541.641 398.085,541.797C399.86,541.987 401.625,542.348 403.288,543.009C403.714,543.179 404.133,543.367 404.542,543.576C405.103,543.863 405.646,544.187 406.163,544.548C406.916,545.073 407.613,545.676 408.247,546.34C408.814,546.935 409.33,547.579 409.796,548.256C410.089,548.682 410.359,549.122 410.616,549.57C410.844,549.978 411.065,550.39 411.291,550.799C411.573,551.301 411.863,551.798 412.166,552.287C412.412,552.683 412.666,553.075 412.93,553.459C413.144,553.771 413.365,554.079 413.594,554.381C414.327,555.349 415.14,556.262 416.065,557.051C417.027,557.871 418.114,558.551 419.305,558.983C419.808,559.165 420.327,559.303 420.855,559.393C421.206,559.453 421.561,559.492 421.917,559.511C424.253,559.635 426.544,558.88 428.597,557.819C428.986,557.618 429.368,557.404 429.745,557.181C430.087,556.978 430.425,556.765 430.739,556.52C431.217,556.146 431.644,555.704 432,555.212C432.474,554.558 432.815,553.815 433.032,553.039C433.23,552.334 433.327,551.603 433.351,550.871C433.384,549.848 433.273,548.822 433.081,547.818C432.794,546.317 432.32,544.855 431.743,543.442C431.088,541.839 430.297,540.288 429.388,538.815C429.119,538.379 428.839,537.949 428.546,537.528C428.2,537.03 427.833,536.545 427.432,536.089C427.08,535.689 426.692,535.32 426.301,534.96C425.806,534.504 425.296,534.065 424.772,533.643C423.777,532.843 422.73,532.108 421.648,531.431C420.467,530.691 419.243,530.02 417.987,529.417C413.037,527.042 407.624,525.726 402.172,525.206C399.491,524.95 396.795,524.897 394.104,524.967C390.903,525.049 387.704,525.305 384.536,525.775C381.005,526.3 377.504,527.088 374.13,528.263C371.343,529.233 368.637,530.475 366.158,532.084C364.56,533.121 363.058,534.313 361.719,535.67C360.108,537.302 358.739,539.177 357.71,541.229C356.744,543.154 356.08,545.224 355.702,547.343C355.381,549.144 355.267,550.981 355.308,552.808C355.362,555.255 355.668,557.699 356.316,560.061C356.87,562.081 357.675,564.033 358.733,565.842C359.78,567.631 361.068,569.274 362.537,570.735C362.956,571.152 363.39,571.555 363.836,571.942C367.015,574.705 370.794,576.701 374.709,578.208C375.376,578.465 376.049,578.708 376.726,578.939C377.7,579.271 378.683,579.578 379.672,579.864C380.852,580.205 382.04,580.516 383.234,580.804C384.565,581.126 385.902,581.416 387.241,581.697C388.904,582.038 390.568,582.375 392.23,582.718C394.345,583.16 396.458,583.616 398.552,584.148C400.354,584.605 402.146,585.118 403.897,585.745C405.635,586.367 407.346,587.102 408.922,588.068C410.129,588.808 411.264,589.694 412.175,590.784C412.815,591.551 413.334,592.416 413.684,593.354C413.994,594.185 414.166,595.063 414.219,595.948C414.261,596.642 414.233,597.341 414.118,598.026C413.989,598.792 413.751,599.538 413.411,600.236C412.756,601.583 411.731,602.718 410.559,603.638C409.649,604.353 408.647,604.946 407.607,605.452C406.247,606.112 404.82,606.623 403.368,607.039C401.923,607.452 400.45,607.763 398.965,607.993C397.814,608.172 396.655,608.304 395.492,608.38C394.455,608.447 393.419,608.462 392.381,608.434C391.208,608.402 390.034,608.304 388.881,608.085C387.836,607.887 386.811,607.588 385.83,607.175C385.327,606.963 384.836,606.722 384.359,606.454C381.757,604.991 379.675,602.758 377.985,600.326C377.71,599.931 377.444,599.529 377.187,599.121C376.858,598.599 376.543,598.068 376.24,597.53C375.799,596.747 375.384,595.95 374.991,595.143C374.68,594.503 374.382,593.858 374.095,593.208C373.963,592.908 373.836,592.606 373.704,592.307C373.629,592.141 373.628,592.141 373.55,591.977C373.436,591.745 373.319,591.515 373.191,591.29C372.881,590.743 372.525,590.222 372.124,589.739C371.652,589.171 371.118,588.654 370.53,588.205C369.972,587.778 369.367,587.414 368.73,587.115C366.418,586.031 363.736,585.862 361.26,586.409C360.828,586.504 360.403,586.623 359.983,586.761C358.772,587.161 357.604,587.746 356.622,588.567C355.427,589.567 354.53,590.895 353.971,592.345C353.074,594.672 353.045,597.251 353.507,599.677C353.574,600.029 353.652,600.38 353.739,600.728C353.848,601.162 353.971,601.591 354.107,602.017C354.274,602.536 354.459,603.048 354.661,603.553C354.939,604.247 355.248,604.928 355.583,605.596C355.991,606.412 356.438,607.209 356.917,607.985C358.31,610.242 359.992,612.318 361.895,614.165C363.654,615.873 365.599,617.386 367.672,618.692C370.438,620.436 373.432,621.805 376.535,622.828C380.177,624.028 383.967,624.753 387.784,625.096C389.446,625.245 391.112,625.315 392.781,625.335C392.96,625.336 393.14,625.338 393.32,625.339ZM373.567,582.954C373.75,583.136 376.811,586.264 379.417,591.78C379.789,592.566 382.546,598.478 384.942,600.42C386.742,601.88 389.2,603.303 391.309,603.611C397.331,604.491 402.178,602.743 403.735,602.174C404.7,601.822 406.888,600.801 408.055,599.674C408.933,598.826 409.891,596.206 407.646,594.097C405.402,591.987 402.9,590.404 393.874,587.969C392.31,587.547 377.742,584.418 375.402,583.612C374.789,583.397 374.177,583.18 373.567,582.954ZM413.33,561.274C413.17,561.146 413.17,561.146 413.012,561.017L412.82,560.855C412.271,560.38 411.745,559.881 411.247,559.351C410.034,558.059 408.984,556.621 408.041,555.122C407.698,554.577 407.369,554.023 407.053,553.463C406.786,552.989 406.531,552.509 406.266,552.035C406.199,551.919 406.131,551.803 406.061,551.688C405.915,551.45 405.766,551.215 405.605,550.987C405.181,550.384 404.698,549.82 404.15,549.324C403.81,549.017 403.445,548.735 403.06,548.486C401.481,547.463 399.617,547.008 397.768,546.793C397.476,546.759 397.184,546.73 396.892,546.707C396.435,546.67 395.976,546.644 395.517,546.627C395.002,546.607 394.487,546.597 393.972,546.592C393.569,546.588 393.167,546.588 392.765,546.589C392.312,546.589 391.86,546.588 391.407,546.591C391.285,546.594 391.162,546.598 391.04,546.604C389.62,546.688 388.208,546.941 386.843,547.34C385.996,547.587 385.161,547.892 384.371,548.287C383.911,548.517 383.462,548.778 383.054,549.093C382.805,549.284 382.559,549.499 382.374,549.756C382.3,549.859 382.224,549.979 382.198,550.107C382.178,550.2 382.175,550.3 382.169,550.395C382.164,550.469 382.16,550.544 382.157,550.618C382.149,550.832 382.148,551.048 382.171,551.261C382.183,551.378 382.199,551.501 382.247,551.61C382.292,551.712 382.374,551.8 382.448,551.879C382.598,552.039 382.768,552.179 382.942,552.31C383.181,552.489 383.432,552.65 383.688,552.803C384.117,553.057 384.561,553.283 385.011,553.496C385.38,553.67 385.754,553.834 386.131,553.99C386.615,554.19 387.103,554.378 387.595,554.556C388.262,554.798 388.936,555.024 389.612,555.241C390.376,555.486 391.145,555.718 391.917,555.941C392.949,556.238 393.987,556.517 395.027,556.787C396.378,557.138 397.735,557.47 399.094,557.789C400.821,558.195 402.553,558.576 404.284,558.963C404.7,559.057 405.115,559.152 405.53,559.248C407.603,559.731 409.668,560.248 411.721,560.813C412.258,560.963 412.795,561.115 413.33,561.274Z" style="fill:rgb(245,221,154);"/></g><g id="SmallHighlight" transform="matrix(0.62349,0.553956,-3.9806,4.93245,1304.71,-15.7806)"><ellipse cx="216.014" cy="151.187" rx="18.962" ry="1.009" style="fill:white;fill-opacity:0.435945;"/></g><g id="SmallHighlight1" transform="matrix(0.635101,0.216649,-1.45648,5.03957,788.521,0.766194)"><ellipse cx="216.014" cy="151.187" rx="18.962" ry="1.009" style="fill:white;fill-opacity:0.435945;"/></g><g id="SmallHighlight2" transform="matrix(0.0933261,-0.161646,-5.63315,-2.90549,1647.04,1306.3)"><ellipse cx="216.014" cy="151.187" rx="18.962" ry="1.009" style="fill:white;fill-opacity:0.435945;"/></g></g></g></g><defs><linearGradient gradientTransform="matrix(9.36079e-15,-152.873,152.873,9.36079e-15,382.389,669.248)" gradientUnits="userSpaceOnUse" id="_Linear1" x1="0" x2="1" y1="0" y2="0"><stop offset="0%" style="stop-color:rgb(207,155,8);stop-opacity:1"/><stop offset="100%" style="stop-color:rgb(231,173,9);stop-opacity:1"/></linearGradient><linearGradient gradientTransform="matrix(1.88923e-14,-308.534,308.534,1.88923e-14,408.861,734.018)" gradientUnits="userSpaceOnUse" id="_Linear2" x1="0" x2="1" y1="0" y2="0"><stop offset="0%" style="stop-color:white;stop-opacity:0.65131"/><stop offset="52%" style="stop-color:white;stop-opacity:0.49806"/><stop offset="100%" style="stop-color:white;stop-opacity:0"/><stop offset="100%" style="stop-color:white;stop-opacity:0"/></linearGradient></defs></svg>